<svg width="33" height="32" viewBox="0 0 33 32" fill="none" xmlns="http://www.w3.org/2000/svg">
<g id="devicon:google">
<path id="Vector" d="M11.6475 1.0525C8.45019 2.16167 5.69285 4.26691 3.78046 7.059C1.86808 9.85109 0.901465 13.1829 1.02259 16.5649C1.14372 19.947 2.34621 23.201 4.45343 25.8492C6.56065 28.4973 9.46153 30.3999 12.73 31.2775C15.3798 31.9612 18.156 31.9913 20.82 31.365C23.2333 30.8229 25.4644 29.6634 27.295 28C29.2002 26.2159 30.5831 23.9462 31.295 21.435C32.0685 18.7041 32.2062 15.8323 31.6975 13.04H16.8175V19.2125H25.435C25.2628 20.197 24.8937 21.1366 24.3499 21.9751C23.806 22.8136 23.0986 23.5338 22.27 24.0925C21.2178 24.7888 20.0316 25.2572 18.7875 25.4675C17.5399 25.6995 16.2601 25.6995 15.0125 25.4675C13.7479 25.2063 12.5516 24.6844 11.5 23.935C9.81036 22.739 8.54168 21.0398 7.87499 19.08C7.19721 17.0835 7.19721 14.919 7.87499 12.9225C8.34955 11.523 9.13407 10.2488 10.17 9.19499C11.3555 7.96686 12.8563 7.08899 14.5079 6.65769C16.1594 6.22638 17.8979 6.25832 19.5325 6.75C20.8095 7.1418 21.9772 7.82669 22.9425 8.75C23.9142 7.78333 24.8842 6.81416 25.8525 5.8425C26.3525 5.32 26.8975 4.82249 27.39 4.2875C25.9163 2.91629 24.1866 1.84926 22.3 1.1475C18.8642 -0.10003 15.1049 -0.133556 11.6475 1.0525Z" fill="white"/>
<path id="Vector_2" d="M11.6474 1.05249C15.1046 -0.134368 18.8639 -0.101725 22.2999 1.14499C24.1869 1.85152 25.9158 2.92369 27.3874 4.29999C26.8874 4.83499 26.3599 5.33499 25.8499 5.85499C24.8799 6.82332 23.9108 7.78832 22.9424 8.74999C21.9772 7.82669 20.8094 7.1418 19.5324 6.74999C17.8984 6.25659 16.16 6.22281 14.508 6.65235C12.856 7.08188 11.3542 7.95814 10.1674 9.18499C9.13153 10.2388 8.34701 11.513 7.87244 12.9125L2.68994 8.89999C4.54496 5.22139 7.75681 2.40755 11.6474 1.05249Z" fill="#E33629"/>
<path id="Vector_3" d="M1.31512 12.875C1.59347 11.4945 2.05593 10.1575 2.69012 8.90002L7.87262 12.9225C7.19484 14.9191 7.19484 17.0835 7.87262 19.08C6.14595 20.4134 4.41845 21.7534 2.69012 23.1C1.103 19.9408 0.618951 16.3413 1.31512 12.875Z" fill="#F8BD00"/>
<path id="Vector_4" d="M16.8175 13.0375H31.6975C32.2062 15.8298 32.0686 18.7016 31.295 21.4325C30.5831 23.9437 29.2002 26.2133 27.295 27.9975C25.6225 26.6925 23.9425 25.3975 22.27 24.0925C23.0992 23.5332 23.8069 22.8122 24.3508 21.9728C24.8946 21.1334 25.2634 20.1928 25.435 19.2075H16.8175C16.815 17.1525 16.8175 15.095 16.8175 13.0375Z" fill="#587DBD"/>
<path id="Vector_5" d="M2.6875 23.1C4.41583 21.7667 6.14333 20.4267 7.87 19.08C8.53802 21.0405 9.80851 22.7398 11.5 23.935C12.5549 24.6809 13.7537 25.1986 15.02 25.455C16.2676 25.6871 17.5474 25.6871 18.795 25.455C20.0391 25.2447 21.2253 24.7764 22.2775 24.08C23.95 25.385 25.63 26.68 27.3025 27.985C25.4722 29.6493 23.241 30.8097 20.8275 31.3525C18.1635 31.9788 15.3873 31.9488 12.7375 31.265C10.6418 30.7054 8.68419 29.719 6.9875 28.3675C5.19182 26.9416 3.72509 25.1448 2.6875 23.1Z" fill="#319F43"/>
</g>
</svg>
