<svg width="24" height="24" viewBox="0 0 24 24" fill="none" xmlns="http://www.w3.org/2000/svg">
    <path d="M3 6C3 5.80109 3.07902 5.61032 3.21967 5.46967C3.36032 5.32902 3.55109 5.25 3.75 5.25H20.25C20.4489 5.25 20.6397 5.32902 20.7803 5.46967C20.921 5.61032 21 5.80109 21 6C21 6.19891 20.921 6.38968 20.7803 6.53033C20.6397 6.67098 20.4489 6.75 20.25 6.75H3.75C3.55109 6.75 3.36032 6.67098 3.21967 6.53033C3.07902 6.38968 3 6.19891 3 6ZM12.75 11.25H3.75C3.55109 11.25 3.36032 11.329 3.21967 11.4697C3.07902 11.6103 3 11.8011 3 12C3 12.1989 3.07902 12.3897 3.21967 12.5303C3.36032 12.671 3.55109 12.75 3.75 12.75H12.75C12.9489 12.75 13.1397 12.671 13.2803 12.5303C13.421 12.3897 13.5 12.1989 13.5 12C13.5 11.8011 13.421 11.6103 13.2803 11.4697C13.1397 11.329 12.9489 11.25 12.75 11.25ZM12.75 17.25H3.75C3.55109 17.25 3.36032 17.329 3.21967 17.4697C3.07902 17.6103 3 17.8011 3 18C3 18.1989 3.07902 18.3897 3.21967 18.5303C3.36032 18.671 3.55109 18.75 3.75 18.75H12.75C12.9489 18.75 13.1397 18.671 13.2803 18.5303C13.421 18.3897 13.5 18.1989 13.5 18C13.5 17.8011 13.421 17.6103 13.2803 17.4697C13.1397 17.329 12.9489 17.25 12.75 17.25ZM22.8975 14.3644L16.8975 10.6144C16.784 10.5434 16.6536 10.5042 16.5198 10.5006C16.386 10.4971 16.2537 10.5294 16.1366 10.5943C16.0195 10.6592 15.9219 10.7542 15.8539 10.8695C15.786 10.9848 15.7501 11.1162 15.75 11.25V18.75C15.7501 18.8838 15.786 19.0152 15.8539 19.1305C15.9219 19.2458 16.0195 19.3408 16.1366 19.4057C16.2537 19.4706 16.386 19.5029 16.5198 19.4994C16.6536 19.4958 16.784 19.4566 16.8975 19.3856L22.8975 15.6356C23.0052 15.5682 23.094 15.4745 23.1556 15.3633C23.2171 15.2521 23.2494 15.1271 23.2494 15C23.2494 14.8729 23.2171 14.7479 23.1556 14.6367C23.094 14.5255 23.0052 14.4318 22.8975 14.3644Z" fill="#505161"/>
</svg>
